<svg width="29" height="12" viewBox="0 0 29 12" fill="none" xmlns="http://www.w3.org/2000/svg">
<path d="M27.6703 0.72998C23.7028 3.55296 19.2581 5.63638 14.5503 6.87998C9.87772 8.06831 5.09648 8.77862 0.280273 8.99998C0.377251 9.7102 0.55162 10.4077 0.800272 11.08C3.52027 13.54 24.0003 9.33998 28.0003 4.47998C28.8503 3.46998 27.6703 0.72998 27.6703 0.72998ZM3.35027 11C3.21578 11 3.08431 10.9601 2.97248 10.8854C2.86066 10.8107 2.7735 10.7045 2.72203 10.5802C2.67057 10.4559 2.6571 10.3192 2.68334 10.1873C2.70958 10.0554 2.77434 9.93425 2.86944 9.83915C2.96454 9.74405 3.0857 9.67929 3.21761 9.65305C3.34952 9.62681 3.48624 9.64027 3.6105 9.69174C3.73475 9.74321 3.84095 9.83037 3.91567 9.94219C3.99039 10.054 4.03027 10.1855 4.03027 10.32C4.03162 10.4097 4.01495 10.4987 3.98126 10.5818C3.94756 10.6649 3.89752 10.7404 3.83411 10.8038C3.7707 10.8672 3.6952 10.9173 3.61209 10.951C3.52897 10.9847 3.43994 11.0013 3.35027 11Z" fill="#303030"/>
</svg>
